# xmcd CD database file
#
# Track frame offsets:
#	150
#	15502
#	28925
#	40266
#	55951
#	66943
#	79042
#	94475
#	108615
#	124120
#	136336
#	154174
#	168004
#	184257
#	198515
#	213573
#	226582
#	240799
#	253007
#	265312
#
# Disc length: 3719 seconds
#
# Revision: 0
# Processed by: cddbd v1.5.2PL0 Copyright (c) Steve Scherf et al.
# Submitted via: CDex 1.51
#
DISCID=130e8514
DTITLE=Charlie Parker - Charlie Parker
DYEAR=2004
DGENRE=Jazz
TTITLE0=An Oscar for Treadwell
TTITLE1=Passport
TTITLE2=Leap Frog
TTITLE3=Star Eyes
TTITLE4=Merry Go Round
TTITLE5=Victory Ball
TTITLE6=My Melancholy Baby
TTITLE7=Overtime
TTITLE8=Bloomdido
TTITLE9=Marmaduke
TTITLE10=Relaxin' With Lee
TTITLE11=Steeplechase
TTITLE12=Mohawk
TTITLE13=Cardboard
TTITLE14=Segment
TTITLE15=Be Bop
TTITLE16=Billie's Bounce
TTITLE17=Bird's Nest
TTITLE18=Carvin' the Bird
TTITLE19=Cheers
EXTD=YEAR: 2004
EXTT0=
EXTT1=
EXTT2=
EXTT3=
EXTT4=
EXTT5=
EXTT6=
EXTT7=
EXTT8=
EXTT9=
EXTT10=
EXTT11=
EXTT12=
EXTT13=
EXTT14=
EXTT15=
EXTT16=
EXTT17=
EXTT18=
EXTT19=
PLAYORDER=
